<mxfile host="app.diagrams.net" agent="Mozilla/5.0 (Windows NT 10.0; Win64; x64) AppleWebKit/537.36 (KHTML, like Gecko) Chrome/130.0.0.0 Safari/537.36" version="24.8.3">
  <diagram name="Page-1" id="dsPcrtad0bS-Pw5isFoL">
    <mxGraphModel dx="1000" dy="530" grid="1" gridSize="10" guides="1" tooltips="1" connect="1" arrows="1" fold="1" page="1" pageScale="1" pageWidth="850" pageHeight="1100" math="0" shadow="0">
      <root>
        <mxCell id="0" />
        <mxCell id="1" parent="0" />
        <mxCell id="lRHzUNECIHvVTKPmiHY7-3" value="" style="edgeStyle=orthogonalEdgeStyle;rounded=0;orthogonalLoop=1;jettySize=auto;html=1;" edge="1" parent="1" source="lRHzUNECIHvVTKPmiHY7-1" target="lRHzUNECIHvVTKPmiHY7-2">
          <mxGeometry relative="1" as="geometry" />
        </mxCell>
        <mxCell id="lRHzUNECIHvVTKPmiHY7-1" value="Start" style="strokeWidth=2;html=1;shape=mxgraph.flowchart.terminator;whiteSpace=wrap;" vertex="1" parent="1">
          <mxGeometry x="325" y="30" width="100" height="60" as="geometry" />
        </mxCell>
        <mxCell id="lRHzUNECIHvVTKPmiHY7-5" value="" style="edgeStyle=orthogonalEdgeStyle;rounded=0;orthogonalLoop=1;jettySize=auto;html=1;" edge="1" parent="1" source="lRHzUNECIHvVTKPmiHY7-2" target="lRHzUNECIHvVTKPmiHY7-4">
          <mxGeometry relative="1" as="geometry" />
        </mxCell>
        <mxCell id="lRHzUNECIHvVTKPmiHY7-2" value="translate = {&lt;div&gt;&lt;span class=&quot;hljs-string&quot;&gt;&quot;you&quot;&lt;/span&gt;: &lt;span class=&quot;hljs-string&quot;&gt;&quot;kamu&quot;&lt;/span&gt;,&lt;br/&gt;    &lt;span class=&quot;hljs-string&quot;&gt;&quot;sorry&quot;&lt;/span&gt;: &lt;span class=&quot;hljs-string&quot;&gt;&quot;maaf&quot;&lt;/span&gt;,&lt;br/&gt;    &lt;span class=&quot;hljs-string&quot;&gt;&quot;egg&quot;&lt;/span&gt;: &lt;span class=&quot;hljs-string&quot;&gt;&quot;telur&quot;&lt;/span&gt;,&lt;br/&gt;    &lt;span class=&quot;hljs-string&quot;&gt;&quot;bottle&quot;&lt;/span&gt;: &lt;span class=&quot;hljs-string&quot;&gt;&quot;botol&quot;&lt;/span&gt;,&lt;br/&gt;    &lt;span class=&quot;hljs-string&quot;&gt;&quot;chair&quot;&lt;/span&gt;: &lt;span class=&quot;hljs-string&quot;&gt;&quot;kursi&quot;&lt;/span&gt;&lt;br/&gt;}&lt;/div&gt;" style="ellipse;whiteSpace=wrap;html=1;" vertex="1" parent="1">
          <mxGeometry x="297.5" y="160" width="155" height="120" as="geometry" />
        </mxCell>
        <mxCell id="lRHzUNECIHvVTKPmiHY7-8" value="" style="edgeStyle=orthogonalEdgeStyle;rounded=0;orthogonalLoop=1;jettySize=auto;html=1;" edge="1" parent="1" source="lRHzUNECIHvVTKPmiHY7-4" target="lRHzUNECIHvVTKPmiHY7-7">
          <mxGeometry relative="1" as="geometry" />
        </mxCell>
        <mxCell id="lRHzUNECIHvVTKPmiHY7-4" value="input put" style="shape=parallelogram;perimeter=parallelogramPerimeter;whiteSpace=wrap;html=1;fixedSize=1;" vertex="1" parent="1">
          <mxGeometry x="315" y="370" width="120" height="60" as="geometry" />
        </mxCell>
        <mxCell id="lRHzUNECIHvVTKPmiHY7-10" value="" style="edgeStyle=orthogonalEdgeStyle;rounded=0;orthogonalLoop=1;jettySize=auto;html=1;" edge="1" parent="1" source="lRHzUNECIHvVTKPmiHY7-7" target="lRHzUNECIHvVTKPmiHY7-9">
          <mxGeometry relative="1" as="geometry" />
        </mxCell>
        <mxCell id="lRHzUNECIHvVTKPmiHY7-14" value="" style="edgeStyle=orthogonalEdgeStyle;rounded=0;orthogonalLoop=1;jettySize=auto;html=1;" edge="1" parent="1" source="lRHzUNECIHvVTKPmiHY7-7" target="lRHzUNECIHvVTKPmiHY7-13">
          <mxGeometry relative="1" as="geometry" />
        </mxCell>
        <mxCell id="lRHzUNECIHvVTKPmiHY7-7" value="put in translate" style="strokeWidth=2;html=1;shape=mxgraph.flowchart.decision;whiteSpace=wrap;" vertex="1" parent="1">
          <mxGeometry x="325" y="500" width="100" height="100" as="geometry" />
        </mxCell>
        <mxCell id="lRHzUNECIHvVTKPmiHY7-19" style="edgeStyle=orthogonalEdgeStyle;rounded=0;orthogonalLoop=1;jettySize=auto;html=1;exitX=0.5;exitY=1;exitDx=0;exitDy=0;" edge="1" parent="1" source="lRHzUNECIHvVTKPmiHY7-9">
          <mxGeometry relative="1" as="geometry">
            <mxPoint x="370" y="790" as="targetPoint" />
            <Array as="points">
              <mxPoint x="580" y="790" />
            </Array>
          </mxGeometry>
        </mxCell>
        <mxCell id="lRHzUNECIHvVTKPmiHY7-9" value="print translate[put]" style="shape=parallelogram;perimeter=parallelogramPerimeter;whiteSpace=wrap;html=1;fixedSize=1;" vertex="1" parent="1">
          <mxGeometry x="520" y="520" width="120" height="60" as="geometry" />
        </mxCell>
        <mxCell id="lRHzUNECIHvVTKPmiHY7-11" value="Y" style="text;html=1;align=center;verticalAlign=middle;resizable=0;points=[];autosize=1;strokeColor=none;fillColor=none;" vertex="1" parent="1">
          <mxGeometry x="422.5" y="520" width="30" height="30" as="geometry" />
        </mxCell>
        <mxCell id="lRHzUNECIHvVTKPmiHY7-12" value="N" style="text;html=1;align=center;verticalAlign=middle;resizable=0;points=[];autosize=1;strokeColor=none;fillColor=none;" vertex="1" parent="1">
          <mxGeometry x="370" y="600" width="30" height="30" as="geometry" />
        </mxCell>
        <mxCell id="lRHzUNECIHvVTKPmiHY7-16" value="" style="edgeStyle=orthogonalEdgeStyle;rounded=0;orthogonalLoop=1;jettySize=auto;html=1;" edge="1" parent="1" source="lRHzUNECIHvVTKPmiHY7-13" target="lRHzUNECIHvVTKPmiHY7-15">
          <mxGeometry relative="1" as="geometry">
            <Array as="points">
              <mxPoint x="372" y="760" />
              <mxPoint x="372" y="760" />
            </Array>
          </mxGeometry>
        </mxCell>
        <mxCell id="lRHzUNECIHvVTKPmiHY7-13" value="print(&quot;kata tidak ditemukan&quot;)" style="shape=parallelogram;perimeter=parallelogramPerimeter;whiteSpace=wrap;html=1;fixedSize=1;" vertex="1" parent="1">
          <mxGeometry x="315" y="680" width="120" height="60" as="geometry" />
        </mxCell>
        <mxCell id="lRHzUNECIHvVTKPmiHY7-15" value="End" style="strokeWidth=2;html=1;shape=mxgraph.flowchart.terminator;whiteSpace=wrap;" vertex="1" parent="1">
          <mxGeometry x="322.5" y="840" width="100" height="60" as="geometry" />
        </mxCell>
      </root>
    </mxGraphModel>
  </diagram>
</mxfile>
